<?xml version="1.0" encoding="UTF-8"?>
<svg id="Layer_1" data-name="Layer 1" xmlns="http://www.w3.org/2000/svg" xmlns:xlink="http://www.w3.org/1999/xlink" viewBox="0 0 203.47 113.65">
  <defs>
    <style>
      .cls-1 {
        mask: url(#mask);
      }

      .cls-2 {
        stroke-width: 2px;
      }

      .cls-2, .cls-3, .cls-4, .cls-5, .cls-6, .cls-7, .cls-8, .cls-9, .cls-10, .cls-11 {
        stroke-miterlimit: 10;
      }

      .cls-2, .cls-3, .cls-5, .cls-6, .cls-7, .cls-8, .cls-9, .cls-10, .cls-11 {
        stroke: #05ff9f;
      }

      .cls-2, .cls-4, .cls-6, .cls-8 {
        fill: #05ff9f;
      }

      .cls-3, .cls-4 {
        stroke-width: .02px;
      }

      .cls-3, .cls-5, .cls-7, .cls-10 {
        fill: #0d0d0d;
      }

      .cls-4 {
        stroke: #0d0d0d;
      }

      .cls-5 {
        stroke-width: .25px;
      }

      .cls-6, .cls-11 {
        stroke-width: .5px;
      }

      .cls-9 {
        stroke-width: .2px;
      }

      .cls-10 {
        stroke-width: 1.5px;
      }

      .cls-11 {
        fill: none;
      }
    </style>
    <filter id="luminosity-noclip" x="105.87" y="-8312.04" width="64.14" height="32766" color-interpolation-filters="sRGB" filterUnits="userSpaceOnUse">
      <feFlood flood-color="#fff" result="bg"/>
      <feBlend in="SourceGraphic" in2="bg"/>
    </filter>
    <mask id="mask" x="105.87" y="-8312.04" width="64.14" height="32766" maskUnits="userSpaceOnUse"/>
  </defs>
  <g>
    <path class="cls-11" d="m69.13,99.51c-.48,6.65-6.31,8.64-13.4,8.64-7.38-.01-13.48-2.15-13.45-9.61v-1.44c-.03-7.44,6.06-9.58,13.45-9.61,7.09.01,12.92,2.01,13.4,8.64h-7.87c-.72-1.93-2.9-2.39-5.54-2.39-3.13.04-5.8.6-5.76,3.84v.48c-.04,3.21,2.62,3.79,5.76,3.84,2.64,0,4.83-.47,5.54-2.4h7.87Z"/>
    <path class="cls-11" d="m78.52,88.01h9.13l10.56,19.69h-8.64l-1.55-3.37h-9.86l-1.55,3.37h-8.64l10.56-19.69Zm1.86,11.51h5.41l-2.7-5.82-2.71,5.82Z"/>
    <path class="cls-11" d="m102.24,107.69v-13.45h-9.13v-6.24h25.93v6.24h-9.13v13.45h-7.68Z"/>
  </g>
  <rect class="cls-11" x="109.93" y="107.66" width="7.68" height="5.74"/>
  <g>
    <path class="cls-11" d="m19.22,65.64c4.06-.04,7.5,3.37,7.44,7.44.06,4.06-3.38,7.5-7.44,7.44H7.93v4.8H.25v-19.69h18.97Zm-1.92,9.11c.45,0,.85-.16,1.17-.48s.5-.73.5-1.19-.16-.86-.5-1.19c-.32-.34-.72-.5-1.17-.5H7.93v3.35h9.38Z"/>
    <path class="cls-11" d="m36.42,65.61v19.69h-7.68v-19.69h7.68Z"/>
    <path class="cls-6" d="m58.21,65.64h9.59l-10.33,9.84,10.33,9.84h-9.59l-5.52-5.76-5.52,5.76h-9.61l10.33-9.84-10.33-9.84h9.61l5.52,5.74,5.52-5.74Z"/>
    <path class="cls-11" d="m68.88,65.64h23.04v5.04h-15.37v2.52h15.37v4.56h-15.37v2.52h15.37v5.05h-23.04v-19.69Z"/>
    <path class="cls-11" d="m103.67,65.61v13.45h15.37v6.24h-23.04v-19.69h7.68Z"/>
  </g>
  <path class="cls-9" d="m165.26,25.35c1.25,1.72,3.03,4.59,4.01,8.52,1.12,4.47.66,8.06.36,10.23-1.6,11.54-9.14,19.23-9.61,19.69,0,0-9.89,9.54-24.97,9.92-.52.01-.76,0-.65.02,3.56.35,14.38.94,23.83-6.04,4.28-3.16,6.7-6.71,7.57-8.07,4.43-6.93,4.9-13.94,4.82-17.62,1.94-2.19,3.28-4.23,4.18-5.78,2.53-4.39,3.59-8.44,4.15-10.65.15-.58.26-1.07.33-1.4l-14.03,1.19Z"/>
  <path class="cls-5" d="m120.04,1.43c3.27,3.59,6.55,7.19,9.82,10.78-2.18.63-5.39,1.82-8.73,4.2-2.98,2.12-5.02,4.43-6.3,6.14-.24-2.63-.3-6.69.93-11.41,1.12-4.31,2.91-7.59,4.29-9.72Z"/>
  <path class="cls-4" d="m201.74,49.16c-.43-.16-1.37-.45-2.55-.25-1.49.26-2.42,1.15-2.72,1.46.92-.62,1.7-.78,2.3-.78.48,0,.62.11,1.09.24.22.06.53.13,1.15.23.6.09.9.14,1.24.13.29,0,.7-.04,1.2-.19-.62.15-1.57.27-2.33-.22-.06-.04-.54-.36-.48-.54.07-.2.77-.13,1.09-.08Z"/>
  <g class="cls-1">
    <circle class="cls-10" cx="137.94" cy="42.31" r="31.32"/>
  </g>
  <path class="cls-3" d="m201.03,48.1c-.32-.05-.79-.11-1.35-.05-.71.07-1.69.31-3.24,1.43-1.54,1.11-1.51,1.53-2.74,2.46-1.45,1.09-2.86,1.52-3.48,1.71-.18.05-.43.12-.77.19-2.42.5-4.8.27-7.75.45,0,0-3.83.23-5.33,1.63-.15.14-.57.53-.53,1.01.01.14.06.25.08.31.22.44.78.57,1.02.62.76.17,2.6-.58,4.77-2.04,0,0,0,0,0,0,0,0,0,0,0,0-.12.09-.32.23-.55.41-.09.07-.14.11-.27.21,0,0-.25.2-.58.45-1.03.8-1.81,1.16-1.81,1.16-.88.41-1.67.47-2.16.51-1.56.11-2.51-.33-3.51-.54-1.98-.42-3.28.23-5.07.62-5.21,1.13-7.1-1.53-11.1-.64-1.79.4-4.36,1.59-7,5.46,1.5-2.51,3.93-5.6,7.55-6.34,3.18-.65,4.05,1.18,8.59.95,4.31-.21,3.78-1.92,10.59-3.28,3.64-.73,5.53-.58,7.19-2.3.67-.69,1.01-1.23,1.63-1.8,0,0,.59-.51,1.17-.86,2.43-1.49,5.76.05,8.01-1.4.17-.11.62-.41,1-.96.64-.93.59-1.99.6-1.97.03.69-.05,1.77-.75,2.63-1.1,1.35-3.25,1.54-4.32,1.64-1.34.12-2.63-.05-3.58.67-.51.38-.57.7-.58.83-.04.47.34.84.43.93.83.82,3.1.49,4.95-.44,2.06-1.03,2.24-2.12,4.66-3.25.55-.25,1.34-.57,2.38-.62.77-.03,1.41.1,1.84.22Z"/>
  <path class="cls-4" d="m200.94,47.92c-.32-.05-.79-.11-1.35-.05-.71.07-1.69.31-3.24,1.43-1.54,1.11-1.51,1.53-2.74,2.46-1.45,1.09-2.86,1.52-3.48,1.71-.18.05-.43.12-.77.19-2.42.5-4.8.27-7.75.45,0,0-3.83.23-5.33,1.63-.15.14-.57.53-.53,1.01.01.14.06.25.08.31.22.44.78.57,1.02.62.76.17,2.6-.58,4.77-2.04,0,0,0,0,0,0,0,0,0,0,0,0-.12.09-.32.23-.55.41-.09.07-.14.11-.27.21,0,0-.25.2-.58.45-1.03.8-1.81,1.16-1.81,1.16-.88.41-1.67.47-2.16.51-1.56.11-2.51-.33-3.51-.54-1.98-.42-3.28.23-5.07.62-5.21,1.13-7.1-1.53-11.1-.64-1.79.4-4.36,1.59-7,5.46,1.5-2.51,3.93-5.6,7.55-6.34,3.18-.65,4.05,1.18,8.59.95,4.31-.21,3.78-1.92,10.59-3.28,3.64-.73,5.53-.58,7.19-2.3.67-.69,1.01-1.23,1.63-1.8,0,0,.59-.51,1.17-.86,2.43-1.49,5.76.05,8.01-1.4.17-.11.62-.41,1-.96.64-.93.59-1.99.6-1.97.03.69-.05,1.77-.75,2.63-1.1,1.35-3.25,1.54-4.32,1.64-1.34.12-2.63-.05-3.58.67-.51.38-.57.7-.58.83-.04.47.34.84.43.93.83.82,3.1.49,4.95-.44,2.06-1.03,2.24-2.12,4.66-3.25.55-.25,1.34-.57,2.38-.62.77-.03,1.41.1,1.84.22Z"/>
  <path class="cls-4" d="m193.36,44.8c-.38-.05-1.11-.1-1.97.19-.89.3-1.46.83-1.72,1.1.32-.12.82-.27,1.43-.25.93.02,1.33.39,2.2.46.43.03,1.05-.01,1.84-.38-.56.16-1.46.3-2.22-.13-.15-.08-.5-.28-.48-.51.02-.22.38-.41.92-.47Z"/>
  <path class="cls-4" d="m157.97,59.39s-.88.41-1.93.48c-.27.02-.48,0-.52-.09-.06-.16.37-.47.49-.55-.47.1-1.03.26-1.63.54-1.32.62-2.16,1.52-2.63,2.1.43-.37,1.12-.86,2.07-1.18.6-.2.78-.15,1.65-.36,1.59-.4,2.5-.94,2.51-.93Z"/>
  <path class="cls-8" d="m169.12,42.16c.12-1.99.07-5.05-.97-8.57-1.17-3.95-3.07-6.77-4.36-8.41,4.79-.43,9.59-.87,14.38-1.3-.07.34-.19.82-.33,1.4-.56,2.21-1.62,6.27-4.15,10.65-.96,1.66-2.41,3.87-4.56,6.22Z"/>
  <path class="cls-2" d="m117.99,1.63c3.27,3.59,6.55,7.19,9.82,10.78-2.18.63-5.39,1.82-8.73,4.2-2.98,2.12-5.02,4.43-6.3,6.14-.24-2.63-.3-6.69.93-11.41,1.12-4.31,2.91-7.59,4.29-9.72Z"/>
  <path class="cls-3" d="m193.82,44.44c-.32-.06-.79-.11-1.35-.07-.71.06-1.69.29-3.26,1.39-1.56,1.09-1.53,1.51-2.77,2.42-1.46,1.07-2.87,1.49-3.5,1.66-.18.05-.43.11-.77.18-2.43.47-4.81.21-7.76.35,0,0-3.83.18-5.35,1.57-.15.14-.57.52-.55,1,0,.14.05.25.08.31.21.44.77.58,1.01.64.76.18,2.61-.54,4.79-1.98-.12.08-.32.22-.56.41-.17.14-.3.24-.33.27-1.22,1.05-2.36,1.53-2.36,1.53-.22.09-1.06.43-2.16.48-1.56.07-2.49-.35-3.5-.58-1.7-.38-3.06,0-5.08.55-4.43,1.22-8.25,4.5-10.06,6.81-.34.44-.89,1.19-1.91,1.85-1.81,1.18-3.92,1.31-3.91,1.37,0,.02.33,0,.72-.08.41-.08,1.77-.37,2.95-1.22,1.72-1.23,3.15-3.69,2.55-4.42-.4-.49-1.5.07-3.32.41-1.73.33-4.06.45-6.99-.27.76.01,6.06.06,9.22-1.26.85-.36,1.44-.6,2.04-1.18.83-.8,1-1.45,2.11-2.6.43-.45.84-.7.96-.78.26-.18,1.48-.99,3.41-1.34.3-.05.5-.08.88-.12,1.95-.22,2.44,0,3.97-.12,1.22-.1,2.16-.21,3.23-.76.68-.34,1.18-.74,1.5-1.03.02-.02-.37.35-.53.49-1.97,1.63-5.41,1.9-5.84,1.93-.77.05-1.73.06-3.02.38-.12.03-.69.18-1.35.56-.47.28-1.02.61-1.17,1.21-.05.2-.1.39,0,.54.61,1.08,6.41-1.64,6.61-1.77.03-.02.15-.1.32-.21.71-.44,1.33-.73,1.71-.91,1.71-.77,2.93-.94,4.58-1.25,4.02-.75,6.34-1.54,7.22-2.21.63-.49.97-.88.98-.88.37-.43.46-.66.85-1.06,0,0,.35-.38.88-.71,3.26-2.01,6.45-.17,8.64-2.29.69-.66,1-1.44,1.14-1.9-.08.53-.3,1.43-.99,2.24-.76.88-1.71,1.19-2.45,1.43-1.72.55-2.45.13-4.18.86-.5.21-1.07.51-1.27,1.1-.02.05-.21.61.02.97.56.85,3.24.43,5.3-.66,1.91-1.01,2.13-1.91,4.36-2.91.57-.26,1.36-.56,2.39-.59.77-.02,1.41.12,1.84.24Z"/>
  <path class="cls-8" d="m139.58,63.08c-.73-.25-1.54-.5-2.43-.71-.78-.19-1.51-.33-2.2-.43.14-.22.34-.52.62-.84.09-.1.23-.26.43-.46.68-.66,1.17-1.13,1.9-1.3.15-.03.38-.07.68-.06-.96,0-1.22.29-1.3.46-.52.97,2.13,3.19,2.3,3.33Z"/>
  <path class="cls-8" d="m119.92,57.17c.42.21.85.44,1.29.69.51.29.98.58,1.41.87.02-.23.03-.54.02-.9,0-.12-.02-.3-.04-.54-.1-.84-.17-1.43-.51-1.93-.07-.09-.17-.23-.34-.37.17.14.62.56.57,1.03-.07.63-1.03,1.27-2.4,1.14Z"/>
  <path class="cls-4" d="m193.69,44.32c-.32-.06-.79-.11-1.35-.07-.71.06-1.69.29-3.26,1.39-1.56,1.09-1.53,1.51-2.77,2.42-1.46,1.07-2.87,1.49-3.5,1.66-.18.05-.43.11-.77.18-2.43.47-4.81.21-7.76.35,0,0-3.83.18-5.35,1.57-.15.14-.57.52-.55,1,0,.14.05.25.08.31.21.44.77.58,1.01.64.76.18,2.61-.54,4.79-1.98-.12.08-.32.22-.56.41-.17.14-.3.24-.33.27-1.22,1.05-2.36,1.53-2.36,1.53-.22.09-1.06.43-2.16.48-1.56.07-2.49-.35-3.5-.58-1.7-.38-3.06,0-5.08.55-3.73,1.03-7.87,3.67-10.06,6.81-.36.51-.89,1.36-1.96,2.05-1.74,1.12-3.86,1.14-3.85,1.18,0,.01.29,0,.72-.08.26-.05,1.75-.35,2.95-1.22,1.76-1.28,3.05-3.86,2.42-4.56-.42-.46-1.46.16-3.19.55-1.69.38-4.01.54-6.99-.27.76.01,6.06.06,9.22-1.26.85-.36,1.44-.6,2.04-1.18.83-.8,1-1.45,2.11-2.6.43-.45.84-.7.96-.78.26-.18,1.48-.99,3.41-1.34.3-.05.5-.08.88-.12,1.95-.22,2.44,0,3.97-.12,1.22-.1,2.16-.21,3.23-.76.68-.34,1.18-.74,1.5-1.03.02-.02-.37.35-.53.49-1.97,1.63-5.41,1.9-5.84,1.93-.77.05-1.73.06-3.02.38-.12.03-.69.18-1.35.56-.47.28-1.02.61-1.17,1.21-.05.2-.1.39,0,.54.61,1.08,6.41-1.64,6.61-1.77.03-.02.15-.1.32-.21.71-.44,1.33-.73,1.71-.91,1.71-.77,2.94-.94,4.58-1.25,4.02-.75,6.34-1.54,7.22-2.21.63-.49.97-.88.98-.88.37-.43.46-.66.85-1.06,0,0,.35-.38.88-.71,3.26-2.01,6.45-.17,8.64-2.29.69-.66,1-1.44,1.14-1.9-.08.53-.3,1.43-.99,2.24-.76.88-1.71,1.19-2.45,1.43-1.72.55-2.45.13-4.18.86-.5.21-1.07.51-1.27,1.1-.02.05-.21.61.02.97.56.85,3.24.43,5.3-.66,1.91-1.01,2.13-1.91,4.36-2.91.57-.26,1.36-.56,2.39-.59.77-.02,1.41.12,1.84.24Z"/>
  <path class="cls-7" d="m115.65,47.75c-.23.43-.55,1.17-.7,2.16-.25,1.68.16,3.03.34,3.55.2.55.63,1.55,1.52,2.39.15.14,1.82,1.66,3.94,1.14.56-.14,1.44-.36,1.55-.95.15-.87-1.56-1.69-3.31-3.44-1.05-1.05-2.26-2.58-3.34-4.84Z"/>
  <path class="cls-7" d="m150.55,57.97c-.05.59-.21,1.54-.74,2.58-.91,1.76-2.31,2.63-2.89,2.94-.61.33-1.81.87-3.39.86-.26,0-3.22-.06-5.22-2.38-.53-.61-1.37-1.58-1.07-2.21.44-.93,2.95-.19,6.14-.27,1.92-.05,4.35-.4,7.17-1.52Z"/>
</svg>