<?xml version="1.0" encoding="UTF-8"?>
<svg id="Layer_1" data-name="Layer 1" xmlns="http://www.w3.org/2000/svg" viewBox="0 0 97.6 73.75">
  <defs>
    <style>
      .cls-1, .cls-2 {
        stroke-width: .02px;
      }

      .cls-1, .cls-2, .cls-3, .cls-4, .cls-5 {
        stroke-miterlimit: 10;
      }

      .cls-1, .cls-6, .cls-3, .cls-4, .cls-7, .cls-5, .cls-8 {
        stroke: #05ff9f;
      }

      .cls-1, .cls-3, .cls-5 {
        fill: #0d0d0d;
      }

      .cls-2 {
        stroke: #0d0d0d;
      }

      .cls-2, .cls-4, .cls-7, .cls-8 {
        fill: #05ff9f;
      }

      .cls-6 {
        stroke-width: .2px;
      }

      .cls-6, .cls-7, .cls-8 {
        stroke-linejoin: round;
      }

      .cls-7 {
        stroke-width: 2px;
      }

      .cls-5 {
        stroke-width: 1.5px;
      }
    </style>
  </defs>
  <path class="cls-6" d="m59.16,24.68c1.25,1.72,3.03,4.59,4.01,8.52,1.12,4.47.66,8.06.36,10.23-1.6,11.54-9.14,19.23-9.61,19.69,0,0-9.89,9.54-24.97,9.92-.52.01-.76,0-.65.02,3.56.35,14.38.94,23.83-6.04,4.28-3.16,6.7-6.71,7.57-8.07,4.43-6.93,5.04-13.89,4.96-17.57,1.94-2.19,3.14-4.28,4.04-5.83,2.53-4.39,3.59-8.44,4.15-10.65.15-.58.26-1.07.33-1.4l-14.03,1.19Z"/>
  <path class="cls-2" d="m95.87,48.53c-.43-.16-1.37-.45-2.55-.25-1.49.26-2.42,1.15-2.72,1.46.92-.62,1.7-.78,2.3-.78.48,0,.62.11,1.09.24.22.06.53.13,1.15.23.6.09.9.14,1.24.13.29,0,.7-.04,1.2-.19-.62.15-1.57.27-2.33-.22-.06-.04-.54-.36-.48-.54.07-.2.77-.13,1.09-.08Z"/>
  <circle class="cls-5" cx="32.07" cy="41.68" r="31.32"/>
  <path class="cls-1" d="m95.16,47.47c-.32-.05-.79-.11-1.35-.05-.71.07-1.69.31-3.24,1.43-1.54,1.11-1.51,1.53-2.74,2.46-1.45,1.09-2.86,1.52-3.48,1.71-.18.05-.43.12-.77.19-2.42.5-4.8.27-7.75.45,0,0-3.83.23-5.33,1.63-.15.14-.57.53-.53,1.01.01.14.06.25.08.31.22.44.78.57,1.02.62.76.17,2.6-.58,4.77-2.04,0,0,0,0,0,0,0,0,0,0,0,0-.12.09-.32.23-.55.41-.09.07-.14.11-.27.21,0,0-.25.2-.58.45-1.03.8-1.81,1.16-1.81,1.16-.88.41-1.67.47-2.16.51-1.56.11-2.51-.33-3.51-.54-1.98-.42-3.28.23-5.07.62-5.21,1.13-7.1-1.53-11.1-.64-1.79.4-4.36,1.59-7,5.46,1.5-2.51,3.93-5.6,7.55-6.34,3.18-.65,4.05,1.18,8.59.95,4.31-.21,3.78-1.92,10.59-3.28,3.64-.73,5.53-.58,7.19-2.3.67-.69,1.01-1.23,1.63-1.8,0,0,.59-.51,1.17-.86,2.43-1.49,5.76.05,8.01-1.4.17-.11.62-.41,1-.96.64-.93.59-1.99.6-1.97.03.69-.05,1.77-.75,2.63-1.1,1.35-3.25,1.54-4.32,1.64-1.34.12-2.63-.05-3.58.67-.51.38-.57.7-.58.83-.04.47.34.84.43.93.83.82,3.1.49,4.95-.44,2.06-1.03,2.24-2.12,4.66-3.25.55-.25,1.34-.57,2.38-.62.77-.03,1.41.1,1.84.22Z"/>
  <path class="cls-2" d="m87.49,44.17c-.38-.05-1.11-.1-1.97.19-.89.3-1.46.83-1.72,1.1.32-.12.82-.27,1.43-.25.93.02,1.33.39,2.2.46.43.03,1.05-.01,1.84-.38-.56.16-1.46.3-2.22-.13-.15-.08-.5-.28-.48-.51.02-.22.38-.41.92-.47Z"/>
  <path class="cls-2" d="m95.07,47.28c-.32-.05-.79-.11-1.35-.05-.71.07-1.69.31-3.24,1.43-1.54,1.11-1.51,1.53-2.74,2.46-1.45,1.09-2.86,1.52-3.48,1.71-.18.05-.43.12-.77.19-2.42.5-4.8.27-7.75.45,0,0-3.83.23-5.33,1.63-.15.14-.57.53-.53,1.01.01.14.06.25.08.31.22.44.78.57,1.02.62.76.17,2.6-.58,4.77-2.04,0,0,0,0,0,0,0,0,0,0,0,0-.12.09-.32.23-.55.41-.09.07-.14.11-.27.21,0,0-.25.2-.58.45-1.03.8-1.81,1.16-1.81,1.16-.88.41-1.67.47-2.16.51-1.56.11-2.51-.33-3.51-.54-1.98-.42-3.28.23-5.07.62-5.21,1.13-7.1-1.53-11.1-.64-1.79.4-4.36,1.59-7,5.46,1.5-2.51,3.93-5.6,7.55-6.34,3.18-.65,4.05,1.18,8.59.95,4.31-.21,3.78-1.92,10.59-3.28,3.64-.73,5.53-.58,7.19-2.3.67-.69,1.01-1.23,1.63-1.8,0,0,.59-.51,1.17-.86,2.43-1.49,5.76.05,8.01-1.4.17-.11.62-.41,1-.96.64-.93.59-1.99.6-1.97.03.69-.05,1.77-.75,2.63-1.1,1.35-3.25,1.54-4.32,1.64-1.34.12-2.63-.05-3.58.67-.51.38-.57.7-.58.83-.04.47.34.84.43.93.83.82,3.1.49,4.95-.44,2.06-1.03,2.24-2.12,4.66-3.25.55-.25,1.34-.57,2.38-.62.77-.03,1.41.1,1.84.22Z"/>
  <path class="cls-2" d="m52.1,58.76s-.88.41-1.93.48c-.27.02-.48,0-.52-.09-.06-.16.37-.47.49-.55-.47.1-1.03.26-1.63.54-1.32.62-2.16,1.52-2.63,2.1.43-.37,1.12-.86,2.07-1.18.6-.2.78-.15,1.65-.36,1.59-.4,2.5-.94,2.51-.93Z"/>
  <path class="cls-8" d="m63.25,41.53c.12-1.99.07-5.05-.97-8.57-1.17-3.95-3.07-6.77-4.36-8.41,4.79-.43,9.59-.87,14.38-1.3-.07.34-.19.82-.33,1.4-.56,2.21-1.62,6.27-4.15,10.65-.96,1.66-2.41,3.87-4.56,6.22Z"/>
  <path class="cls-7" d="m12.12,1c3.27,3.59,6.55,7.19,9.82,10.78-2.18.63-5.39,1.82-8.73,4.2-2.98,2.12-5.02,4.43-6.3,6.14-.24-2.63-.3-6.69.93-11.41,1.12-4.31,2.91-7.59,4.29-9.72Z"/>
  <path class="cls-1" d="m87.96,43.81c-.32-.06-.79-.11-1.35-.07-.71.06-1.69.29-3.26,1.39-1.56,1.09-1.53,1.51-2.77,2.42-1.46,1.07-2.87,1.49-3.5,1.66-.18.05-.43.11-.77.18-2.43.47-4.81.21-7.76.35,0,0-3.83.18-5.35,1.57-.15.14-.57.52-.55,1,0,.14.05.25.08.31.21.44.77.58,1.01.64.76.18,2.61-.54,4.79-1.98-.12.08-.32.22-.56.41-.17.14-.3.24-.33.27-1.22,1.05-2.36,1.53-2.36,1.53-.22.09-1.06.43-2.16.48-1.56.07-2.49-.35-3.5-.58-1.7-.38-3.06,0-5.08.55-4.43,1.22-8.25,4.5-10.06,6.81-.34.44-.89,1.19-1.91,1.85-1.81,1.18-3.92,1.31-3.91,1.37,0,.02.33,0,.72-.08.41-.08,1.77-.37,2.95-1.22,1.72-1.23,3.15-3.69,2.55-4.42-.4-.49-1.5.07-3.32.41-1.73.33-4.06.45-6.99-.27.76.01,6.06.06,9.22-1.26.85-.36,1.44-.6,2.04-1.18.83-.8,1-1.45,2.11-2.6.43-.45.84-.7.96-.78.26-.18,1.48-.99,3.41-1.34.3-.05.5-.08.88-.12,1.95-.22,2.44,0,3.97-.12,1.22-.1,2.16-.21,3.23-.76.68-.34,1.18-.74,1.5-1.03.02-.02-.37.35-.53.49-1.97,1.63-5.41,1.9-5.84,1.93-.77.05-1.73.06-3.02.38-.12.03-.69.18-1.35.56-.47.28-1.02.61-1.17,1.21-.05.2-.1.39,0,.54.61,1.08,6.41-1.64,6.61-1.77.03-.02.15-.1.32-.21.71-.44,1.33-.73,1.71-.91,1.71-.77,2.93-.94,4.58-1.25,4.02-.75,6.34-1.54,7.22-2.21.63-.49.97-.88.98-.88.37-.43.46-.66.85-1.06,0,0,.35-.38.88-.71,3.26-2.01,6.45-.17,8.64-2.29.69-.66,1-1.44,1.14-1.9-.08.53-.3,1.43-.99,2.24-.76.88-1.71,1.19-2.45,1.43-1.72.55-2.45.13-4.18.86-.5.21-1.07.51-1.27,1.1-.02.05-.21.61.02.97.56.85,3.24.43,5.3-.66,1.91-1.01,2.13-1.91,4.36-2.91.57-.26,1.36-.56,2.39-.59.77-.02,1.41.12,1.84.24Z"/>
  <path class="cls-4" d="m33.71,62.45c-.73-.25-1.54-.5-2.43-.71-.78-.19-1.51-.33-2.2-.43.14-.22.34-.52.62-.84.09-.1.23-.26.43-.46.68-.66,1.17-1.13,1.9-1.3.15-.03.38-.07.68-.06-.96,0-1.22.29-1.3.46-.52.97,2.13,3.19,2.3,3.33Z"/>
  <path class="cls-4" d="m14.05,56.54c.42.21.85.44,1.29.69.51.29.98.58,1.41.87.02-.23.03-.54.02-.9,0-.12-.02-.3-.04-.54-.1-.84-.17-1.43-.51-1.93-.07-.09-.17-.23-.34-.37.17.14.62.56.57,1.03-.07.63-1.03,1.27-2.4,1.14Z"/>
  <path class="cls-2" d="m87.82,43.69c-.32-.06-.79-.11-1.35-.07-.71.06-1.69.29-3.26,1.39-1.56,1.09-1.53,1.51-2.77,2.42-1.46,1.07-2.87,1.49-3.5,1.66-.18.05-.43.11-.77.18-2.43.47-4.81.21-7.76.35,0,0-3.83.18-5.35,1.57-.15.14-.57.52-.55,1,0,.14.05.25.08.31.21.44.77.58,1.01.64.76.18,2.61-.54,4.79-1.98-.12.08-.32.22-.56.41-.17.14-.3.24-.33.27-1.22,1.05-2.36,1.53-2.36,1.53-.22.09-1.06.43-2.16.48-1.56.07-2.49-.35-3.5-.58-1.7-.38-3.06,0-5.08.55-3.73,1.03-7.87,3.67-10.06,6.81-.36.51-.89,1.36-1.96,2.05-1.74,1.12-3.86,1.14-3.85,1.18,0,.01.29,0,.72-.08.26-.05,1.75-.35,2.95-1.22,1.76-1.28,3.05-3.86,2.42-4.56-.42-.46-1.46.16-3.19.55-1.69.38-4.01.54-6.99-.27.76.01,6.06.06,9.22-1.26.85-.36,1.44-.6,2.04-1.18.83-.8,1-1.45,2.11-2.6.43-.45.84-.7.96-.78.26-.18,1.48-.99,3.41-1.34.3-.05.5-.08.88-.12,1.95-.22,2.44,0,3.97-.12,1.22-.1,2.16-.21,3.23-.76.68-.34,1.18-.74,1.5-1.03.02-.02-.37.35-.53.49-1.97,1.63-5.41,1.9-5.84,1.93-.77.05-1.73.06-3.02.38-.12.03-.69.18-1.35.56-.47.28-1.02.61-1.17,1.21-.05.2-.1.39,0,.54.61,1.08,6.41-1.64,6.61-1.77.03-.02.15-.1.32-.21.71-.44,1.33-.73,1.71-.91,1.71-.77,2.94-.94,4.58-1.25,4.02-.75,6.34-1.54,7.22-2.21.63-.49.97-.88.98-.88.37-.43.46-.66.85-1.06,0,0,.35-.38.88-.71,3.26-2.01,6.45-.17,8.64-2.29.69-.66,1-1.44,1.14-1.9-.08.53-.3,1.43-.99,2.24-.76.88-1.71,1.19-2.45,1.43-1.72.55-2.45.13-4.18.86-.5.21-1.07.51-1.27,1.1-.02.05-.21.61.02.97.56.85,3.24.43,5.3-.66,1.91-1.01,2.13-1.91,4.36-2.91.57-.26,1.36-.56,2.39-.59.77-.02,1.41.12,1.84.24Z"/>
  <path class="cls-3" d="m9.78,47.11c-.23.43-.55,1.17-.7,2.16-.25,1.68.16,3.03.34,3.55.2.55.63,1.55,1.52,2.39.15.14,1.82,1.66,3.94,1.14.56-.14,1.44-.36,1.55-.95.15-.87-1.56-1.69-3.31-3.44-1.05-1.05-2.26-2.58-3.34-4.84Z"/>
  <path class="cls-3" d="m44.68,57.33c-.05.59-.21,1.54-.74,2.58-.91,1.76-2.31,2.63-2.89,2.94-.61.33-1.81.87-3.39.86-.26,0-3.22-.06-5.22-2.38-.53-.61-1.37-1.58-1.07-2.21.44-.93,2.95-.19,6.14-.27,1.92-.05,4.35-.4,7.17-1.52Z"/>
</svg>